<svg width="40" height="40" viewBox="0 0 40 40" fill="none" xmlns="http://www.w3.org/2000/svg">
<mask id="path-1-inside-1_0_1" fill="white">
<path fill-rule="evenodd" clip-rule="evenodd" d="M37.7824 12H38V35C38 36.6569 36.6569 38 35 38H5C3.34315 38 2 36.6569 2 35V12H2.21761L20 23L37.7824 12ZM5 0C2.23858 0 0 2.23858 0 5V35C0 37.7614 2.23858 40 5 40H35C37.7614 40 40 37.7614 40 35V5C40 2.23858 37.7614 0 35 0H5Z"/>
</mask>
<path fill-rule="evenodd" clip-rule="evenodd" d="M37.7824 12H38V35C38 36.6569 36.6569 38 35 38H5C3.34315 38 2 36.6569 2 35V12H2.21761L20 23L37.7824 12ZM5 0C2.23858 0 0 2.23858 0 5V35C0 37.7614 2.23858 40 5 40H35C37.7614 40 40 37.7614 40 35V5C40 2.23858 37.7614 0 35 0H5Z" fill="white"/>
<path d="M38 12H39V11H38V12ZM37.7824 12V11H37.4981L37.2563 11.1496L37.7824 12ZM2 12V11H1V12H2ZM2.21761 12L2.74369 11.1496L2.50191 11H2.21761V12ZM20 23L19.4739 23.8504L20 24.1759L20.5261 23.8504L20 23ZM38 11H37.7824V13H38V11ZM39 35V12H37V35H39ZM35 39C37.2091 39 39 37.2091 39 35H37C37 36.1046 36.1046 37 35 37V39ZM5 39H35V37H5V39ZM1 35C1 37.2091 2.79086 39 5 39V37C3.89543 37 3 36.1046 3 35H1ZM1 12V35H3V12H1ZM2.21761 11H2V13H2.21761V11ZM20.5261 22.1496L2.74369 11.1496L1.69154 12.8504L19.4739 23.8504L20.5261 22.1496ZM37.2563 11.1496L19.4739 22.1496L20.5261 23.8504L38.3085 12.8504L37.2563 11.1496ZM1 5C1 2.79086 2.79086 1 5 1V-1C1.68629 -1 -1 1.68629 -1 5H1ZM1 35V5H-1V35H1ZM5 39C2.79086 39 1 37.2091 1 35H-1C-1 38.3137 1.68629 41 5 41V39ZM35 39H5V41H35V39ZM39 35C39 37.2091 37.2091 39 35 39V41C38.3137 41 41 38.3137 41 35H39ZM39 5V35H41V5H39ZM35 1C37.2091 1 39 2.79086 39 5H41C41 1.68629 38.3137 -1 35 -1V1ZM5 1H35V-1H5V1Z" fill="white" mask="url(#path-1-inside-1_0_1)"/>
</svg>
